<svg xmlns="http://www.w3.org/2000/svg" xmlns:xlink="http://www.w3.org/1999/xlink" x="0px" y="0px" viewBox="0 0 1920 1080">
    <path fill="#0077C8" d="M886.4,980.3l220,99.7h-42.8l-194.7-85.9L886.4,980.3z M1920,952.9v-97.4l-95.3-188.8l-277.7-205l-34,26.7
    	l282.7,202.7L1920,952.9z M759,1080h12l-7.2-3.5L759,1080z M1920,657.7V578l-256.3-208l-38.4,30.1l267.3,207.1L1920,657.7z
    	 M806.6,1042.9l88.7,37.1H940l-117.2-49.8L806.6,1042.9z M1920,406.4L1778.3,280l-40.2,31.6L1920,466.8V406.4z M1920,169l-14,10.7
    	l14,13.5V169z M1920,494.3l-199.5-168.9l-38.8,30.4L1920,547.9V494.3z M1920,217.4l-27.9-26.8l-43.2,34l71.2,65.9V217.4z
    	 M1920,313.4l-84.2-78.4l-41.2,32.2L1920,378.4V313.4z M1920,797.4v-88.5l-46.1-85.4l-266.5-209.3l-38.7,30.4l276.1,204.8
    	L1920,797.4z M1251.1,694l-28.2,22.1l328,186l58.3,177.9h30.7l-67.2-195.9L1251.1,694z M1312.7,645.6l-31.1,24.4l317.5,188.8
    	l79.3,221.2h35.9l-92.8-241.5L1312.7,645.6z M1370.5,600.1l-32,25.4l311.7,190.2l99.8,264.4h40.2l-116.9-285.2L1370.5,600.1z
    	 M1920,1019.2l-145.1-309.3l-285.8-202.8l-35,27.5l292.9,196.6l155.5,348.8h17.5V1019.2z M1429.4,554.2l-31.7,24.6l299.5,193.7
    	l125.6,307.6h47.2l-145.9-327.4L1429.4,554.2z M1130.9,788.3l-23.6,18.5L1450.2,987l24.6,93h26.4l-32.7-109.3L1130.9,788.3z
    	 M1191,741.2l-26.2,20.6l336.8,183.5l39,134.7h28.2l-48.4-153L1191,741.2z M1070.4,835.8l-21.5,16.9l347,174.4l14.6,52.9h23.3
    	l-17.1-66.1L1070.4,835.8z M1009.3,883.8l-20.9,16.4l366,173.2l1.2,6.6h15.9l-4.6-19.8L1009.3,883.8z M929.5,946.4l292,133.6h42.5
    	L947.9,932L929.5,946.4z"/>
    <path fill="#00B5E2" d="M1116,106.4l75,634.7l-26.2,20.6l-62.5-647.7L989,0h20.3L1116,106.4z M630.3,0h-10.7l240.8,230l8.4,764.1
    	l17.5-13.8l-18.8-753.9L630.3,0z M558.2,0h-6.1l262.6,249.8l-8.2,793.2l16.3-12.8l-3-782.9L558.2,0z M935.7,0h-19.3l138.2,135.9
    	l52.8,670.9l23.6-18.5l-64.2-658L935.7,0z M861.5,0h-15.8l161.5,160.3l41.6,692.4l21.5-16.9l-54-682.1L861.5,0z M473.4,0
    	l295.8,274.1L483,0H473.4z M710.6,0h-12.7l212.3,206.1l19.3,740.3l18.3-14.4l-31.5-730.5L710.6,0z M759,1080l4.8-3.5l3.7-625.9
    	l-19,629.4H759z M637.7,1080l17.6-400.6L632.9,1080H637.7z M1920,0h-38l38,65.1V0z M580.8,1080l6.9-154l-10.3,154H580.8z M397.7,0
    	l322.6,301.1L403.8,0H397.7z M701.5,1080l10.7-579.1L692.3,1080H701.5z M785.3,0h-13.7l189,185.7l27.9,714.4l20.9-16.4l-42.2-703.1
    	L785.3,0z M1677.8,0l116.8,267.2l41.2-32.2L1722.5,0H1677.8z M1618.4,0l119.8,311.6l40.2-31.6L1657,0H1618.4z M1558.5,0l123.3,355.9
    	l38.8-30.4L1594,0H1558.5z M1920,98.7L1862.2,0h-51.8l95.6,179.7l14-10.7V98.7z M1502.1,0l123.3,400.1l38.4-30.1L1534.1,0H1502.1z
    	 M1742.9,0l106,224.7l43.2-34L1792.1,0H1742.9z M1338.5,0L1454,534.6l35-27.5L1361.8,0H1338.5z M1227.7,0h-26.4l43.2,42.9l94,582.6
    	l32-25.4L1262.8,35.3L1227.7,0z M1155.1,0h-24.4l66.6,67.3l84.3,602.7l31.1-24.4l-99.2-588.5L1155.1,0z M1443.1,0l125.7,444.5
    	l38.7-30.4L1475.7,0H1443.1z M1299.9,0H1273l17.8,20l107,558.7l31.7-24.6L1312.1,12.4L1299.9,0z M1082.4,0h-23.9l91.4,91.2
    	l72.8,624.9l28.2-22.1L1165.3,84L1082.4,0z M1390.3,0L1513,488.4l34-26.7L1417.7,0H1390.3z"/>
</svg>
