<svg xmlns="http://www.w3.org/2000/svg" xmlns:xlink="http://www.w3.org/1999/xlink" x="0px" y="0px" viewBox="0 0 155 35">
    <path fill="#0077C8" d="M141.1,4.4l3.9,2.3l3.9,2.3l0.1-9L141.1,4.4z"/>
    <path fill="#54565A" d="M151.6,11.2h3.4v17.6h-4.4v-10l-8.3,10h-3.4V11.2h4.4v10L151.6,11.2z M135.1,11.3v17.6h-4.3v-1.7
    	c-1,1.2-3.3,2.3-5.2,2.3c-5.2,0-9.2-4.2-9.2-9.3c0-5.1,4-9.3,9.2-9.3c1.7,0,4.1,1,5.2,2.3v-1.8H135.1z M120.9,20.1
    	c0,2.8,2.2,5.1,4.9,5.1c2.7,0,4.9-2.3,4.9-5.1c0-2.8-2.2-5.1-5-5.1C123.1,14.9,120.9,17.2,120.9,20.1z M109.6,11.3h4.3v17.6h-4.3
    	v-10l-5.9,10h-4.8L109.6,11.3z M90.6,4.7v6.1c5.1,0,9.6,4.2,9.6,9.4c0,5.8-4.3,9.1-9.6,9.1V35h-4.3v-5.6c-5.2,0-9.6-3.3-9.6-9.1
    	c0-5.2,4.5-9.4,9.6-9.4V4.7H90.6z M86.3,14.9c-2.7,0-5.1,1.9-5.1,5.2c0,3.2,2,5,5.1,5V14.9z M90.6,25.2c3.1,0,5.1-1.8,5.1-5
    	c0-3.3-2.4-5.2-5.1-5.2V25.2z M74.1,11.3v17.6h-4.3v-1.7c-1,1.2-3.3,2.3-5.2,2.3c-5.2,0-9.2-4.2-9.2-9.3c0-5.1,4-9.3,9.2-9.3
    	c1.7,0,4.1,1,5.2,2.3v-1.8H74.1z M59.9,20.1c0,2.8,2.2,5.1,4.9,5.1c2.7,0,4.9-2.3,4.9-5.1c0-2.8-2.2-5.1-5-5.1
    	C62.1,14.9,59.9,17.2,59.9,20.1z M49.2,11.2h3.4v17.6h-4.4v-10l-8.3,10h-3.4V11.2h4.4v10L49.2,11.2z M19.2,11.3V13
    	c1.1-1.2,3.4-2.3,5.2-2.3c5.1,0,9.2,4.1,9.2,9.3c0,5.1-4.1,9.3-9.2,9.3c-1.9,0-4.2-1-5.2-2.3V35h-4.3V11.3H19.2z M19.2,20.1
    	c0,2.8,2.2,5.1,4.9,5.1c2.7,0,4.9-2.3,4.9-5.1c0-2.8-2.2-5.1-5-5.1C21.3,14.9,19.2,17.2,19.2,20.1z M0.1,4.7h13.6V9H9.2v19.9H4.5V9
    	H0.1V4.7z"/>
</svg>
