<svg xmlns="http://www.w3.org/2000/svg" xmlns:xlink="http://www.w3.org/1999/xlink" width="220" height="47" viewBox="0 0 220 47">
  <defs>
    <rect id="rect-1" width="220" height="47" x="0" y="0"/>
    <mask id="mask-2" maskContentUnits="userSpaceOnUse" maskUnits="userSpaceOnUse">
      <rect width="220" height="47" x="0" y="0" fill="black"/>
      <use fill="white" xlink:href="#rect-1"/>
    </mask>
    <linearGradient id="linearGradient-5" x1="38.8" x2="56" y1="23.5" y2="23.5" gradientUnits="userSpaceOnUse">
      <stop offset="0" stop-color="rgb(102,102,102)"/>
      <stop offset="1" stop-color="rgb(102,102,102)" stop-opacity="0"/>
    </linearGradient>
  </defs>
  <g>
    <g>
      <use fill="none" xlink:href="#rect-1"/>
      <g mask="url(#mask-2)">
        <path fill="rgb(200,200,200)" fill-rule="evenodd" d="M10 0v23.9l8-4.4V8h31v31H38.8v8H57V0H10z"/>
        <path fill="url(#linearGradient-5)" fill-rule="evenodd" d="M50 7v33H38.8v6H56V1l-6 6z"/>
        <path fill="rgb(0,178,227)" fill-rule="evenodd" d="M31.3 24.5l7.5-13.2L0 32.5v.9l7.5 4.4h15.9l.9-1.3H10.6l20.7-12z"/>
        <path fill="rgb(0,119,200)" fill-rule="evenodd" d="M38.80004883 47V11.30004883l-7.5 13.19995117v17.60009766l7.5 4.89990234zm-9.50024414-19.09997559v9.19995118L21.39990234 32.5l7.89990235-4.59997559zm-11.8996582 4.69995118L10.60009765 36.5h13.69995117l-6.89990235-3.90002441z"/>
      </g>
    </g>
    <g>
      <path fill="rgb(0,119,200)" fill-rule="evenodd" d="M206.1 10.4l3.9 2.3 3.9 2.3.1-9-7.9 4.4z"/>
      <path fill="rgb(84,86,90)" fill-rule="evenodd" d="M78.70019531 10.69995117H65.10009766V15H69.5v19.89990234h4.70019531V15h4.5v-4.30004883zm76.8996582 6.09997559v-6.09997559h-4.29980468v6.19995117c-5.10009766 0-9.60009766 4.20007325-9.60009766 9.40002442 0 5.80004883 4.39990235 9.09997558 9.60009766 9.09997558V41h4.29980469v-5.70007324c5.30004882 0 9.60009765-3.29992676 9.60009765-9.09997559 0-5.19995117-4.5-9.40002441-9.60009765-9.40002441zM84.19995118 19v-1.70007324h-4.30004883V41h4.30004883v-8c1 1.29992676 3.30004883 2.29992676 5.19995117 2.29992676C94.5 35.29992676 98.59985352 31.09997559 98.59985352 26c0-5.20007324-4.09985352-9.30004883-9.19995118-9.30004883-1.80004882 0-4.10009765 1.09997559-5.19995117 2.30004883zm54.89990235-1.59997559v17.5h-4.30004883v-1.69995117C133.79980469 34.40002441 131.5 35.5 129.59985352 35.5c-5.19995118 0-9.19995118-4.19995117-9.19995118-9.29992676 0-5.10009765 4-9.30004883 9.19995118-9.30004883 1.69995117 0 4.10009765 1 5.19995117 2.30004883v-1.80004883h4.30004883zm61 0v17.5h-4.30004883v-1.69995117C194.79980469 34.40002441 192.5 35.5 190.59985352 35.5c-5.19995118 0-9.19995118-4.19995117-9.19995118-9.29992676 0-5.10009765 4-9.30004883 9.19995118-9.30004883 1.69995117 0 4.10009765 1 5.19995117 2.30004883v-1.80004883h4.30004883zm-85.89990235-.20007324h3.40014649v17.59997559h-4.40014649v-10l-8.30004883 10H101.5V17.19995117h4.39990234v10l8.30004883-10zm102.39990235 0H220v17.59997559h-4.40014648v-10l-8.30004883 10h-3.39990235V17.19995117h4.39990235v10l8.30004883-10zm-42 .10009766h4.30004882V34.9000244h-4.30004882v-10l-5.89990235 10h-4.80004883l10.69995118-17.59997558zm-23.2998047 3.59997558c-2.7001953 0-5.10009765 1.90002442-5.10009765 5.19995118 0 3.20007324 2 5 5.10009766 5V20.9000244zM84.19995118 26.0999756c0 2.80004882 2.19995117 5.10009765 4.89990235 5.10009765C91.80004882 31.20007324 94 28.90002441 94 26.0999756 94 23.30004883 91.80004883 21 89 21c-2.69995117-.09997559-4.80004883 2.20007324-4.80004883 5.09997559zm45.59985352 5.10009765c-2.69995117 0-4.89990235-2.30004883-4.89990235-5.10009765 0-2.89990235 2.19995118-5.19995118 4.80004883-5.09997559 2.80004883 0 5 2.30004883 5 5.09997559 0 2.80004882-2.19995117 5.10009765-4.90014648 5.10009765zm61 0c-2.69995117 0-4.89990235-2.30004883-4.89990235-5.10009765 0-2.89990235 2.19995118-5.19995118 4.80004883-5.09997559 2.80004883 0 5 2.30004883 5 5.09997559 0 2.80004882-2.19995117 5.10009765-4.90014648 5.10009765zm-30.09960938-5.00012207c0 3.20007324-2 5-5.10009765 5V21c2.69995117 0 5.10009765 1.90002441 5.10009765 5.19995117z"/>
    </g>
  </g>
</svg>
